# xmcd
#
# Track frame offsets:
#	150
#	9388
#	20174
#	31570
#	33130
#	46377
#	57230
#	67257
#	77726
#	89482
#	90819
#	103651
#	113069
#	123003
#	131898
#	133885
#	145461
#	158794
#	172623
#
# Disc length: 2471 seconds
# Revision: 0
# Processed by: cddbd v1.5.2PL0 Copyright (c) Steve Scherf et al.
# Submitted via: dBpowerAMP V12.0
#
DISCID=f209a513
DTITLE=Windy Hill - Live from The Ratz Nest
DYEAR=2018
DGENRE=Bluegrass
TTITLE0=You'll Never Know
TTITLE1=Got Your Love On My Mind
TTITLE2=Down South In New Orleans
TTITLE3=Rollin'
TTITLE4=I Guess it's Only Right that I Should Pay
TTITLE5=I Know What it Means to be Lonesome
TTITLE6=What's the Matter with the Mill?
TTITLE7=Frog On a Lilly Pad
TTITLE8=Would You Care?
TTITLE9=Beers I Regret
TTITLE10=Tears of Regret
TTITLE11=Pistol Packin' Mama
TTITLE12=Methodist Preacher
TTITLE13=Changing Partners
TTITLE14=Need More Supply
TTITLE15=I See Through You
TTITLE16=Love Call Waltz
TTITLE17=This Rambler's Ramblin'
TTITLE18=I'm Getting Ready to Go
EXTD=
EXTT0=
EXTT1=
EXTT2=
EXTT3=
EXTT4=
EXTT5=
EXTT6=
EXTT7=
EXTT8=
EXTT9=
EXTT10=
EXTT11=
EXTT12=
EXTT13=
EXTT14=
EXTT15=
EXTT16=
EXTT17=
EXTT18=
PLAYORDER=
